<?xml version="1.0" encoding="UTF-8" standalone="no"?>
<!DOCTYPE svg PUBLIC "-//W3C//DTD SVG 1.1//EN"
 "http://www.w3.org/Graphics/SVG/1.1/DTD/svg11.dtd">
<!-- Generated by graphviz version 15.1.0 (20260618.0150)
 -->
<!-- Pages: 1 -->
<svg width="461pt" height="407pt"
 viewBox="0.00 0.00 461.00 407.00" xmlns="http://www.w3.org/2000/svg" xmlns:xlink="http://www.w3.org/1999/xlink">
<g id="graph0" class="graph" transform="scale(1 1) rotate(0) translate(4 403)">
<polygon fill="white" stroke="none" points="-4,4 -4,-403 456.54,-403 456.54,4 -4,4"/>
<g id="clust1" class="cluster">
<title>cluster_input</title>
<polygon fill="none" stroke="white" points="8,-60 8,-338 99.07,-338 99.07,-60 8,-60"/>
</g>
<g id="clust2" class="cluster">
<title>cluster_0</title>
<polygon fill="none" stroke="white" points="119.07,-8 119.07,-391 216.27,-391 216.27,-8 119.07,-8"/>
</g>
<g id="clust3" class="cluster">
<title>cluster_1</title>
<polygon fill="none" stroke="white" points="236.27,-11 236.27,-388 333.48,-388 333.48,-11 236.27,-11"/>
</g>
<g id="clust4" class="cluster">
<title>cluster_2</title>
<polygon fill="none" stroke="white" points="353.48,-155 353.48,-247 444.54,-247 444.54,-155 353.48,-155"/>
</g>
<!-- in_0 -->
<g id="node1" class="node">
<title>in_0</title>
<ellipse fill="lightgrey" stroke="black" cx="53.53" cy="-292" rx="37.53" ry="37.53"/>
<text xml:space="preserve" text-anchor="middle" x="53.53" y="-286.95" font-family="Times New Roman,serif" font-size="14.00">Input 0</text>
</g>
<!-- L0_0 -->
<g id="node4" class="node">
<title>L0_0</title>
<ellipse fill="none" stroke="black" cx="167.67" cy="-57" rx="40.6" ry="40.6"/>
<text xml:space="preserve" text-anchor="middle" x="167.67" y="-51.95" font-family="Times New Roman,serif" font-size="14.00">b=&#45;0.22</text>
</g>
<!-- in_0&#45;&gt;L0_0 -->
<g id="edge1" class="edge">
<title>in_0&#45;&gt;L0_0</title>
<path fill="none" stroke="red" stroke-width="2.23" d="M70.72,-258.08C89.83,-218.03 121.76,-151.11 143.49,-105.57"/>
<polygon fill="red" stroke="red" stroke-width="2.23" points="146.59,-107.2 147.74,-96.67 140.28,-104.18 146.59,-107.2"/>
</g>
<!-- L0_1 -->
<g id="node5" class="node">
<title>L0_1</title>
<ellipse fill="none" stroke="black" cx="167.67" cy="-153" rx="37.53" ry="37.53"/>
<text xml:space="preserve" text-anchor="middle" x="167.67" y="-147.95" font-family="Times New Roman,serif" font-size="14.00">b=0.19</text>
</g>
<!-- in_0&#45;&gt;L0_1 -->
<g id="edge2" class="edge">
<title>in_0&#45;&gt;L0_1</title>
<path fill="none" stroke="blue" stroke-width="1.55" d="M77.77,-263.2C94.61,-242.33 117.55,-213.89 135.91,-191.13"/>
<polygon fill="blue" stroke="blue" stroke-width="1.55" points="138.43,-193.57 141.99,-183.59 132.99,-189.18 138.43,-193.57"/>
</g>
<!-- L0_2 -->
<g id="node6" class="node">
<title>L0_2</title>
<ellipse fill="none" stroke="black" cx="167.67" cy="-246" rx="37.53" ry="37.53"/>
<text xml:space="preserve" text-anchor="middle" x="167.67" y="-240.95" font-family="Times New Roman,serif" font-size="14.00">b=0.48</text>
</g>
<!-- in_0&#45;&gt;L0_2 -->
<g id="edge3" class="edge">
<title>in_0&#45;&gt;L0_2</title>
<path fill="none" stroke="red" stroke-width="2.8" d="M88.79,-277.95C98.57,-273.94 109.4,-269.49 119.8,-265.23"/>
<polygon fill="red" stroke="red" stroke-width="2.8" points="120.78,-268.61 128.71,-261.57 118.13,-262.13 120.78,-268.61"/>
</g>
<!-- L0_3 -->
<g id="node7" class="node">
<title>L0_3</title>
<ellipse fill="none" stroke="black" cx="167.67" cy="-342" rx="40.6" ry="40.6"/>
<text xml:space="preserve" text-anchor="middle" x="167.67" y="-336.95" font-family="Times New Roman,serif" font-size="14.00">b=&#45;0.66</text>
</g>
<!-- in_0&#45;&gt;L0_3 -->
<g id="edge4" class="edge">
<title>in_0&#45;&gt;L0_3</title>
<path fill="none" stroke="blue" stroke-width="0.86" d="M88.18,-307C98.25,-311.49 109.47,-316.5 120.22,-321.29"/>
<polygon fill="blue" stroke="blue" stroke-width="0.86" points="118.57,-324.38 129.13,-325.26 121.42,-317.99 118.57,-324.38"/>
</g>
<!-- in_1 -->
<g id="node2" class="node">
<title>in_1</title>
<ellipse fill="lightgrey" stroke="black" cx="53.53" cy="-106" rx="37.53" ry="37.53"/>
<text xml:space="preserve" text-anchor="middle" x="53.53" y="-100.95" font-family="Times New Roman,serif" font-size="14.00">Input 1</text>
</g>
<!-- in_1&#45;&gt;L0_0 -->
<g id="edge5" class="edge">
<title>in_1&#45;&gt;L0_0</title>
<path fill="none" stroke="blue" stroke-width="2.05" d="M88.48,-91.17C97.83,-87.08 108.16,-82.57 118.16,-78.2"/>
<polygon fill="blue" stroke="blue" stroke-width="2.05" points="119.5,-81.43 127.27,-74.22 116.7,-75.01 119.5,-81.43"/>
</g>
<!-- in_1&#45;&gt;L0_1 -->
<g id="edge6" class="edge">
<title>in_1&#45;&gt;L0_1</title>
<path fill="none" stroke="red" stroke-width="1.98" d="M88.48,-120.23C98.6,-124.47 109.86,-129.19 120.61,-133.7"/>
<polygon fill="red" stroke="red" stroke-width="1.98" points="119.11,-136.86 129.69,-137.5 121.82,-130.41 119.11,-136.86"/>
</g>
<!-- in_1&#45;&gt;L0_2 -->
<g id="edge7" class="edge">
<title>in_1&#45;&gt;L0_2</title>
<path fill="none" stroke="blue" stroke-width="2.01" d="M77.77,-135.01C94.46,-155.84 117.14,-184.16 135.41,-206.98"/>
<polygon fill="blue" stroke="blue" stroke-width="2.01" points="132.58,-209.04 141.56,-214.66 138.05,-204.67 132.58,-209.04"/>
</g>
<!-- in_1&#45;&gt;L0_3 -->
<g id="edge8" class="edge">
<title>in_1&#45;&gt;L0_3</title>
<path fill="none" stroke="blue" stroke-width="0.54" d="M70.6,-139.81C90.06,-180.78 122.95,-249.99 144.74,-295.84"/>
<polygon fill="blue" stroke="blue" stroke-width="0.54" points="141.54,-297.26 148.99,-304.79 147.86,-294.26 141.54,-297.26"/>
</g>
<!-- in_2 -->
<g id="node3" class="node">
<title>in_2</title>
<ellipse fill="lightgrey" stroke="black" cx="53.53" cy="-199" rx="37.53" ry="37.53"/>
<text xml:space="preserve" text-anchor="middle" x="53.53" y="-193.95" font-family="Times New Roman,serif" font-size="14.00">Input 2</text>
</g>
<!-- in_2&#45;&gt;L0_0 -->
<g id="edge9" class="edge">
<title>in_2&#45;&gt;L0_0</title>
<path fill="none" stroke="red" stroke-width="3.34" d="M77.5,-169.92C93.3,-149.91 114.57,-122.97 132.38,-100.42"/>
<polygon fill="red" stroke="red" stroke-width="3.34" points="135.01,-102.74 138.46,-92.72 129.51,-98.4 135.01,-102.74"/>
</g>
<!-- in_2&#45;&gt;L0_1 -->
<g id="edge10" class="edge">
<title>in_2&#45;&gt;L0_1</title>
<path fill="none" stroke="blue" stroke-width="1.64" d="M88.79,-184.95C99,-180.76 110.36,-176.1 121.18,-171.66"/>
<polygon fill="blue" stroke="blue" stroke-width="1.64" points="122.4,-174.94 130.32,-167.91 119.74,-168.47 122.4,-174.94"/>
</g>
<!-- in_2&#45;&gt;L0_2 -->
<g id="edge11" class="edge">
<title>in_2&#45;&gt;L0_2</title>
<path fill="none" stroke="red" stroke-width="1.41" d="M88.48,-213.23C98.82,-217.56 110.34,-222.39 121.3,-226.99"/>
<polygon fill="red" stroke="red" stroke-width="1.41" points="119.9,-230.19 130.47,-230.83 122.6,-223.74 119.9,-230.19"/>
</g>
<!-- in_2&#45;&gt;L0_3 -->
<g id="edge12" class="edge">
<title>in_2&#45;&gt;L0_3</title>
<path fill="none" stroke="blue" stroke-width="1.01" d="M77.5,-228.28C94.01,-249.35 116.5,-278.03 134.76,-301.31"/>
<polygon fill="blue" stroke="blue" stroke-width="1.01" points="131.92,-303.36 140.85,-309.07 137.43,-299.04 131.92,-303.36"/>
</g>
<!-- L1_0 -->
<g id="node8" class="node">
<title>L1_0</title>
<ellipse fill="none" stroke="black" cx="284.88" cy="-57" rx="37.53" ry="37.53"/>
<text xml:space="preserve" text-anchor="middle" x="284.88" y="-51.95" font-family="Times New Roman,serif" font-size="14.00">b=0.93</text>
</g>
<!-- L0_0&#45;&gt;L1_0 -->
<g id="edge13" class="edge">
<title>L0_0&#45;&gt;L1_0</title>
<path fill="none" stroke="blue" stroke-width="0.5" d="M208.64,-57C217.61,-57 227.21,-57 236.45,-57"/>
<polygon fill="blue" stroke="blue" stroke-width="0.5" points="236.31,-60.5 246.31,-57 236.31,-53.5 236.31,-60.5"/>
</g>
<!-- L1_1 -->
<g id="node9" class="node">
<title>L1_1</title>
<ellipse fill="none" stroke="black" cx="284.88" cy="-153" rx="40.6" ry="40.6"/>
<text xml:space="preserve" text-anchor="middle" x="284.88" y="-147.95" font-family="Times New Roman,serif" font-size="14.00">b=&#45;0.74</text>
</g>
<!-- L0_0&#45;&gt;L1_1 -->
<g id="edge14" class="edge">
<title>L0_0&#45;&gt;L1_1</title>
<path fill="none" stroke="blue" stroke-width="0.5" d="M199.54,-82.73C213.49,-94.35 230.12,-108.21 244.92,-120.54"/>
<polygon fill="blue" stroke="blue" stroke-width="0.5" points="242.41,-123.01 252.34,-126.72 246.89,-117.63 242.41,-123.01"/>
</g>
<!-- L1_2 -->
<g id="node10" class="node">
<title>L1_2</title>
<ellipse fill="none" stroke="black" cx="284.88" cy="-249" rx="37.53" ry="37.53"/>
<text xml:space="preserve" text-anchor="middle" x="284.88" y="-243.95" font-family="Times New Roman,serif" font-size="14.00">b=0.56</text>
</g>
<!-- L0_0&#45;&gt;L1_2 -->
<g id="edge15" class="edge">
<title>L0_0&#45;&gt;L1_2</title>
<path fill="none" stroke="blue" stroke-width="0.5" d="M189.53,-91.77C209.17,-124.51 238.6,-173.54 259.36,-208.14"/>
<polygon fill="blue" stroke="blue" stroke-width="0.5" points="256.16,-209.62 264.31,-216.39 262.17,-206.02 256.16,-209.62"/>
</g>
<!-- L1_3 -->
<g id="node11" class="node">
<title>L1_3</title>
<ellipse fill="none" stroke="black" cx="284.88" cy="-342" rx="37.53" ry="37.53"/>
<text xml:space="preserve" text-anchor="middle" x="284.88" y="-336.95" font-family="Times New Roman,serif" font-size="14.00">b=0.09</text>
</g>
<!-- L0_0&#45;&gt;L1_3 -->
<g id="edge16" class="edge">
<title>L0_0&#45;&gt;L1_3</title>
<path fill="none" stroke="blue" stroke-width="3.78" d="M183.85,-94.55C204.45,-145.5 241.28,-236.63 264.04,-292.94"/>
<polygon fill="blue" stroke="blue" stroke-width="3.78" points="260.79,-294.22 267.78,-302.18 267.28,-291.6 260.79,-294.22"/>
</g>
<!-- L0_1&#45;&gt;L1_0 -->
<g id="edge17" class="edge">
<title>L0_1&#45;&gt;L1_0</title>
<path fill="none" stroke="red" stroke-width="0.5" d="M197.15,-129.27C212.24,-116.69 230.95,-101.1 247.13,-87.62"/>
<polygon fill="red" stroke="red" stroke-width="0.5" points="249.3,-90.37 254.74,-81.27 244.82,-84.99 249.3,-90.37"/>
</g>
<!-- L0_1&#45;&gt;L1_1 -->
<g id="edge18" class="edge">
<title>L0_1&#45;&gt;L1_1</title>
<path fill="none" stroke="red" stroke-width="0.5" d="M205.44,-153C214.34,-153 224,-153 233.41,-153"/>
<polygon fill="red" stroke="red" stroke-width="0.5" points="233.11,-156.5 243.11,-153 233.11,-149.5 233.11,-156.5"/>
</g>
<!-- L0_1&#45;&gt;L1_2 -->
<g id="edge19" class="edge">
<title>L0_1&#45;&gt;L1_2</title>
<path fill="none" stroke="blue" stroke-width="0.94" d="M197.15,-176.73C212.1,-189.19 230.61,-204.62 246.68,-218.01"/>
<polygon fill="blue" stroke="blue" stroke-width="0.94" points="244.31,-220.59 254.23,-224.3 248.79,-215.21 244.31,-220.59"/>
</g>
<!-- L0_1&#45;&gt;L1_3 -->
<g id="edge20" class="edge">
<title>L0_1&#45;&gt;L1_3</title>
<path fill="none" stroke="red" stroke-width="2.3" d="M187.95,-184.63C207.06,-215.98 236.46,-264.21 257.68,-299.02"/>
<polygon fill="red" stroke="red" stroke-width="2.3" points="254.53,-300.58 262.72,-307.3 260.51,-296.94 254.53,-300.58"/>
</g>
<!-- L0_2&#45;&gt;L1_0 -->
<g id="edge21" class="edge">
<title>L0_2&#45;&gt;L1_0</title>
<path fill="none" stroke="red" stroke-width="0.71" d="M187.95,-214.37C207.39,-182.48 237.48,-133.1 258.77,-98.18"/>
<polygon fill="red" stroke="red" stroke-width="0.71" points="261.75,-100.02 263.97,-89.66 255.78,-96.37 261.75,-100.02"/>
</g>
<!-- L0_2&#45;&gt;L1_1 -->
<g id="edge22" class="edge">
<title>L0_2&#45;&gt;L1_1</title>
<path fill="none" stroke="blue" stroke-width="1.78" d="M197.44,-222.77C211.22,-211.65 227.96,-198.14 243.03,-185.97"/>
<polygon fill="blue" stroke="blue" stroke-width="1.78" points="244.96,-188.92 250.54,-179.91 240.56,-183.47 244.96,-188.92"/>
</g>
<!-- L0_2&#45;&gt;L1_2 -->
<g id="edge23" class="edge">
<title>L0_2&#45;&gt;L1_2</title>
<path fill="none" stroke="blue" stroke-width="0.55" d="M205.44,-246.96C215.31,-247.21 226.13,-247.5 236.49,-247.77"/>
<polygon fill="blue" stroke="blue" stroke-width="0.55" points="236.14,-251.26 246.23,-248.02 236.32,-244.26 236.14,-251.26"/>
</g>
<!-- L0_2&#45;&gt;L1_3 -->
<g id="edge24" class="edge">
<title>L0_2&#45;&gt;L1_3</title>
<path fill="none" stroke="blue" stroke-width="0.5" d="M197.15,-269.73C212.24,-282.31 230.95,-297.9 247.13,-311.38"/>
<polygon fill="blue" stroke="blue" stroke-width="0.5" points="244.82,-314.01 254.74,-317.73 249.3,-308.63 244.82,-314.01"/>
</g>
<!-- L0_3&#45;&gt;L1_0 -->
<g id="edge25" class="edge">
<title>L0_3&#45;&gt;L1_0</title>
<path fill="none" stroke="blue" stroke-width="1.34" d="M183.85,-304.45C204.88,-252.41 242.86,-158.47 265.48,-102.51"/>
<polygon fill="blue" stroke="blue" stroke-width="1.34" points="268.66,-103.98 269.16,-93.4 262.17,-101.36 268.66,-103.98"/>
</g>
<!-- L0_3&#45;&gt;L1_1 -->
<g id="edge26" class="edge">
<title>L0_3&#45;&gt;L1_1</title>
<path fill="none" stroke="blue" stroke-width="0.5" d="M189.53,-307.77C208.5,-276.66 236.59,-230.58 257.18,-196.79"/>
<polygon fill="blue" stroke="blue" stroke-width="0.5" points="260.17,-198.62 262.38,-188.26 254.19,-194.97 260.17,-198.62"/>
</g>
<!-- L0_3&#45;&gt;L1_2 -->
<g id="edge27" class="edge">
<title>L0_3&#45;&gt;L1_2</title>
<path fill="none" stroke="blue" stroke-width="1.65" d="M199.85,-316.83C213.95,-305.45 230.75,-291.88 245.61,-279.89"/>
<polygon fill="blue" stroke="blue" stroke-width="1.65" points="247.52,-282.84 253.1,-273.84 243.12,-277.4 247.52,-282.84"/>
</g>
<!-- L0_3&#45;&gt;L1_3 -->
<g id="edge28" class="edge">
<title>L0_3&#45;&gt;L1_3</title>
<path fill="none" stroke="blue" stroke-width="0.5" d="M208.64,-342C217.61,-342 227.21,-342 236.45,-342"/>
<polygon fill="blue" stroke="blue" stroke-width="0.5" points="236.31,-345.5 246.31,-342 236.31,-338.5 236.31,-345.5"/>
</g>
<!-- L2_0 -->
<g id="node12" class="node">
<title>L2_0</title>
<ellipse fill="none" stroke="black" cx="399.01" cy="-201" rx="37.53" ry="37.53"/>
<text xml:space="preserve" text-anchor="middle" x="399.01" y="-195.95" font-family="Times New Roman,serif" font-size="14.00">b=0.60</text>
</g>
<!-- L1_0&#45;&gt;L2_0 -->
<g id="edge29" class="edge">
<title>L1_0&#45;&gt;L2_0</title>
<path fill="none" stroke="red" stroke-width="2.13" d="M308.84,-86.49C325.62,-108.04 348.56,-137.5 366.98,-161.15"/>
<polygon fill="red" stroke="red" stroke-width="2.13" points="364.19,-163.26 373.1,-169 369.71,-158.96 364.19,-163.26"/>
</g>
<!-- L1_1&#45;&gt;L2_0 -->
<g id="edge30" class="edge">
<title>L1_1&#45;&gt;L2_0</title>
<path fill="none" stroke="blue" stroke-width="1.17" d="M322.59,-168.72C332.44,-172.93 343.2,-177.54 353.43,-181.92"/>
<polygon fill="blue" stroke="blue" stroke-width="1.17" points="352.05,-185.13 362.62,-185.85 354.8,-178.7 352.05,-185.13"/>
</g>
<!-- L1_2&#45;&gt;L2_0 -->
<g id="edge31" class="edge">
<title>L1_2&#45;&gt;L2_0</title>
<path fill="none" stroke="blue" stroke-width="0.5" d="M319.82,-234.47C330.69,-229.82 342.88,-224.6 354.34,-219.69"/>
<polygon fill="blue" stroke="blue" stroke-width="0.5" points="355.67,-222.93 363.48,-215.78 352.91,-216.5 355.67,-222.93"/>
</g>
<!-- L1_3&#45;&gt;L2_0 -->
<g id="edge32" class="edge">
<title>L1_3&#45;&gt;L2_0</title>
<path fill="none" stroke="blue" stroke-width="5.1" d="M309.11,-312.78C325.2,-292.56 346.85,-265.33 364.76,-242.8"/>
<polygon fill="blue" stroke="blue" stroke-width="5.1" points="368.18,-245.68 370.91,-235.08 361.19,-240.12 368.18,-245.68"/>
</g>
</g>
</svg>
