<?xml version="1.0" encoding="UTF-8" standalone="no"?>
<!DOCTYPE svg PUBLIC "-//W3C//DTD SVG 1.1//EN"
 "http://www.w3.org/Graphics/SVG/1.1/DTD/svg11.dtd">
<!-- Generated by graphviz version 15.1.0 (20260618.0150)
 -->
<!-- Pages: 1 -->
<svg width="349pt" height="797pt"
 viewBox="0.00 0.00 349.00 797.00" xmlns="http://www.w3.org/2000/svg" xmlns:xlink="http://www.w3.org/1999/xlink">
<g id="graph0" class="graph" transform="scale(1 1) rotate(0) translate(4 793)">
<polygon fill="white" stroke="none" points="-4,4 -4,-793 345.48,-793 345.48,4 -4,4"/>
<g id="clust1" class="cluster">
<title>cluster_input</title>
<polygon fill="none" stroke="white" points="8,-306 8,-491 99.07,-491 99.07,-306 8,-306"/>
</g>
<g id="clust2" class="cluster">
<title>cluster_0</title>
<polygon fill="none" stroke="white" points="119.07,-8 119.07,-781 216.27,-781 216.27,-8 119.07,-8"/>
</g>
<g id="clust3" class="cluster">
<title>cluster_1</title>
<polygon fill="none" stroke="white" points="236.27,-350 236.27,-448 333.48,-448 333.48,-350 236.27,-350"/>
</g>
<!-- in_0 -->
<g id="node1" class="node">
<title>in_0</title>
<ellipse fill="lightgrey" stroke="black" cx="53.53" cy="-352" rx="37.53" ry="37.53"/>
<text xml:space="preserve" text-anchor="middle" x="53.53" y="-346.95" font-family="Times New Roman,serif" font-size="14.00">Input 0</text>
</g>
<!-- L0_0 -->
<g id="node3" class="node">
<title>L0_0</title>
<ellipse fill="none" stroke="black" cx="167.67" cy="-57" rx="40.6" ry="40.6"/>
<text xml:space="preserve" text-anchor="middle" x="167.67" y="-51.95" font-family="Times New Roman,serif" font-size="14.00">b=&#45;0.24</text>
</g>
<!-- in_0&#45;&gt;L0_0 -->
<g id="edge1" class="edge">
<title>in_0&#45;&gt;L0_0</title>
<path fill="none" stroke="red" stroke-width="2.56" d="M67.84,-317C87.58,-265.07 124.73,-167.33 147.43,-107.6"/>
<polygon fill="red" stroke="red" stroke-width="2.56" points="150.67,-108.95 150.95,-98.36 144.12,-106.46 150.67,-108.95"/>
</g>
<!-- L0_1 -->
<g id="node4" class="node">
<title>L0_1</title>
<ellipse fill="none" stroke="black" cx="167.67" cy="-156" rx="40.6" ry="40.6"/>
<text xml:space="preserve" text-anchor="middle" x="167.67" y="-150.95" font-family="Times New Roman,serif" font-size="14.00">b=&#45;0.88</text>
</g>
<!-- in_0&#45;&gt;L0_1 -->
<g id="edge2" class="edge">
<title>in_0&#45;&gt;L0_1</title>
<path fill="none" stroke="red" stroke-width="6.06" d="M73.05,-319.63C90.87,-288.48 118.07,-240.95 138.56,-205.13"/>
<polygon fill="red" stroke="red" stroke-width="6.06" points="143.03,-207.99 143.4,-196.68 133.83,-202.72 143.03,-207.99"/>
</g>
<!-- L0_2 -->
<g id="node5" class="node">
<title>L0_2</title>
<ellipse fill="none" stroke="black" cx="167.67" cy="-255" rx="40.6" ry="40.6"/>
<text xml:space="preserve" text-anchor="middle" x="167.67" y="-249.95" font-family="Times New Roman,serif" font-size="14.00">b=&#45;0.28</text>
</g>
<!-- in_0&#45;&gt;L0_2 -->
<g id="edge3" class="edge">
<title>in_0&#45;&gt;L0_2</title>
<path fill="none" stroke="red" stroke-width="2.38" d="M82.54,-327.77C95.69,-316.39 111.63,-302.61 126.07,-290.12"/>
<polygon fill="red" stroke="red" stroke-width="2.38" points="128.27,-292.84 133.54,-283.65 123.69,-287.55 128.27,-292.84"/>
</g>
<!-- L0_3 -->
<g id="node6" class="node">
<title>L0_3</title>
<ellipse fill="none" stroke="black" cx="167.67" cy="-351" rx="37.53" ry="37.53"/>
<text xml:space="preserve" text-anchor="middle" x="167.67" y="-345.95" font-family="Times New Roman,serif" font-size="14.00">b=0.45</text>
</g>
<!-- in_0&#45;&gt;L0_3 -->
<g id="edge4" class="edge">
<title>in_0&#45;&gt;L0_3</title>
<path fill="none" stroke="blue" stroke-width="2.7" d="M91.56,-351.67C99.31,-351.6 107.61,-351.53 115.77,-351.45"/>
<polygon fill="blue" stroke="blue" stroke-width="2.7" points="115.62,-354.96 125.59,-351.37 115.56,-347.96 115.62,-354.96"/>
</g>
<!-- L0_4 -->
<g id="node7" class="node">
<title>L0_4</title>
<ellipse fill="none" stroke="black" cx="167.67" cy="-447" rx="40.6" ry="40.6"/>
<text xml:space="preserve" text-anchor="middle" x="167.67" y="-441.95" font-family="Times New Roman,serif" font-size="14.00">b=&#45;0.40</text>
</g>
<!-- in_0&#45;&gt;L0_4 -->
<g id="edge5" class="edge">
<title>in_0&#45;&gt;L0_4</title>
<path fill="none" stroke="blue" stroke-width="5.09" d="M82.83,-375.97C95.25,-386.49 110.1,-399.07 123.83,-410.71"/>
<polygon fill="blue" stroke="blue" stroke-width="5.09" points="120.74,-413.92 131.25,-416.99 126.49,-407.13 120.74,-413.92"/>
</g>
<!-- L0_5 -->
<g id="node8" class="node">
<title>L0_5</title>
<ellipse fill="none" stroke="black" cx="167.67" cy="-546" rx="40.6" ry="40.6"/>
<text xml:space="preserve" text-anchor="middle" x="167.67" y="-540.95" font-family="Times New Roman,serif" font-size="14.00">b=&#45;0.60</text>
</g>
<!-- in_0&#45;&gt;L0_5 -->
<g id="edge6" class="edge">
<title>in_0&#45;&gt;L0_5</title>
<path fill="none" stroke="blue" stroke-width="3.56" d="M73.3,-384.47C91.27,-415.56 118.59,-462.82 139.04,-498.21"/>
<polygon fill="blue" stroke="blue" stroke-width="3.56" points="135.78,-499.56 143.82,-506.47 141.84,-496.06 135.78,-499.56"/>
</g>
<!-- L0_6 -->
<g id="node9" class="node">
<title>L0_6</title>
<ellipse fill="none" stroke="black" cx="167.67" cy="-642" rx="37.53" ry="37.53"/>
<text xml:space="preserve" text-anchor="middle" x="167.67" y="-636.95" font-family="Times New Roman,serif" font-size="14.00">b=1.90</text>
</g>
<!-- in_0&#45;&gt;L0_6 -->
<g id="edge7" class="edge">
<title>in_0&#45;&gt;L0_6</title>
<path fill="none" stroke="red" stroke-width="3.81" d="M68.06,-386.98C87.89,-438.26 124.93,-534.06 147.54,-592.53"/>
<polygon fill="red" stroke="red" stroke-width="3.81" points="144.15,-593.46 151.02,-601.52 150.67,-590.93 144.15,-593.46"/>
</g>
<!-- L0_7 -->
<g id="node10" class="node">
<title>L0_7</title>
<ellipse fill="none" stroke="black" cx="167.67" cy="-735" rx="37.53" ry="37.53"/>
<text xml:space="preserve" text-anchor="middle" x="167.67" y="-729.95" font-family="Times New Roman,serif" font-size="14.00">b=0.88</text>
</g>
<!-- in_0&#45;&gt;L0_7 -->
<g id="edge8" class="edge">
<title>in_0&#45;&gt;L0_7</title>
<path fill="none" stroke="red" stroke-width="4.26" d="M65.08,-388.03C85.08,-456.32 128.55,-604.8 151.6,-683.55"/>
<polygon fill="red" stroke="red" stroke-width="4.26" points="147.97,-684.38 154.35,-692.93 155.12,-682.29 147.97,-684.38"/>
</g>
<!-- in_1 -->
<g id="node2" class="node">
<title>in_1</title>
<ellipse fill="lightgrey" stroke="black" cx="53.53" cy="-445" rx="37.53" ry="37.53"/>
<text xml:space="preserve" text-anchor="middle" x="53.53" y="-439.95" font-family="Times New Roman,serif" font-size="14.00">Input 1</text>
</g>
<!-- in_1&#45;&gt;L0_0 -->
<g id="edge9" class="edge">
<title>in_1&#45;&gt;L0_0</title>
<path fill="none" stroke="blue" stroke-width="1.24" d="M64.98,-408.85C85.09,-339.27 129.2,-186.65 152.15,-107.24"/>
<polygon fill="blue" stroke="blue" stroke-width="1.24" points="155.44,-108.45 154.86,-97.87 148.72,-106.51 155.44,-108.45"/>
</g>
<!-- in_1&#45;&gt;L0_1 -->
<g id="edge10" class="edge">
<title>in_1&#45;&gt;L0_1</title>
<path fill="none" stroke="blue" stroke-width="5.01" d="M68.06,-410.14C87.52,-359.98 123.58,-267.05 146.28,-208.54"/>
<polygon fill="blue" stroke="blue" stroke-width="5.01" points="150.24,-210.46 149.77,-199.55 142.07,-207.28 150.24,-210.46"/>
</g>
<!-- in_1&#45;&gt;L0_2 -->
<g id="edge11" class="edge">
<title>in_1&#45;&gt;L0_2</title>
<path fill="none" stroke="red" stroke-width="2.61" d="M73.55,-412.77C91.61,-382.18 118.94,-335.87 139.33,-301.33"/>
<polygon fill="red" stroke="red" stroke-width="2.61" points="142.15,-303.43 144.22,-293.04 136.12,-299.87 142.15,-303.43"/>
</g>
<!-- in_1&#45;&gt;L0_3 -->
<g id="edge12" class="edge">
<title>in_1&#45;&gt;L0_3</title>
<path fill="none" stroke="blue" stroke-width="2.93" d="M82.83,-421.28C96.38,-409.92 112.81,-396.14 127.54,-383.8"/>
<polygon fill="blue" stroke="blue" stroke-width="2.93" points="129.57,-386.66 134.99,-377.56 125.08,-381.3 129.57,-386.66"/>
</g>
<!-- in_1&#45;&gt;L0_4 -->
<g id="edge13" class="edge">
<title>in_1&#45;&gt;L0_4</title>
<path fill="none" stroke="blue" stroke-width="5.11" d="M91.25,-445.65C97.47,-445.77 104.05,-445.88 110.63,-446"/>
<polygon fill="blue" stroke="blue" stroke-width="5.11" points="110.44,-450.47 120.52,-446.18 110.6,-441.53 110.44,-450.47"/>
</g>
<!-- in_1&#45;&gt;L0_5 -->
<g id="edge14" class="edge">
<title>in_1&#45;&gt;L0_5</title>
<path fill="none" stroke="red" stroke-width="5.44" d="M81.96,-469.71C94.8,-481.27 110.38,-495.3 124.66,-508.16"/>
<polygon fill="red" stroke="red" stroke-width="5.44" points="121.45,-511.67 132.06,-514.83 127.82,-504.6 121.45,-511.67"/>
</g>
<!-- in_1&#45;&gt;L0_6 -->
<g id="edge15" class="edge">
<title>in_1&#45;&gt;L0_6</title>
<path fill="none" stroke="red" stroke-width="3.47" d="M73.05,-477.53C91.47,-509.9 119.91,-559.85 140.61,-596.21"/>
<polygon fill="red" stroke="red" stroke-width="3.47" points="137.54,-597.9 145.53,-604.86 143.62,-594.44 137.54,-597.9"/>
</g>
<!-- in_1&#45;&gt;L0_7 -->
<g id="edge16" class="edge">
<title>in_1&#45;&gt;L0_7</title>
<path fill="none" stroke="blue" stroke-width="4.91" d="M68.06,-479.98C87.8,-531.04 124.62,-626.25 147.25,-684.78"/>
<polygon fill="blue" stroke="blue" stroke-width="4.91" points="143.24,-686.32 150.85,-694.09 151.25,-683.22 143.24,-686.32"/>
</g>
<!-- L1_0 -->
<g id="node11" class="node">
<title>L1_0</title>
<ellipse fill="none" stroke="black" cx="284.88" cy="-399" rx="40.6" ry="40.6"/>
<text xml:space="preserve" text-anchor="middle" x="284.88" y="-393.95" font-family="Times New Roman,serif" font-size="14.00">b=&#45;0.51</text>
</g>
<!-- L0_0&#45;&gt;L1_0 -->
<g id="edge17" class="edge">
<title>L0_0&#45;&gt;L1_0</title>
<path fill="none" stroke="blue" stroke-width="2.31" d="M181.66,-95.57C202.5,-157.44 243.42,-278.91 266.67,-347.92"/>
<polygon fill="blue" stroke="blue" stroke-width="2.31" points="263.3,-348.9 269.81,-357.25 269.94,-346.66 263.3,-348.9"/>
</g>
<!-- L0_1&#45;&gt;L1_0 -->
<g id="edge18" class="edge">
<title>L0_1&#45;&gt;L1_0</title>
<path fill="none" stroke="blue" stroke-width="7.13" d="M186.04,-192.64C205.58,-233.86 237.46,-301.1 259.49,-347.56"/>
<polygon fill="blue" stroke="blue" stroke-width="7.13" points="253.74,-350.01 263.66,-356.37 265.02,-344.66 253.74,-350.01"/>
</g>
<!-- L0_2&#45;&gt;L1_0 -->
<g id="edge19" class="edge">
<title>L0_2&#45;&gt;L1_0</title>
<path fill="none" stroke="red" stroke-width="3.22" d="M193.95,-286.6C210.23,-306.95 231.61,-333.67 249.44,-355.95"/>
<polygon fill="red" stroke="red" stroke-width="3.22" points="246.63,-358.05 255.61,-363.67 252.1,-353.68 246.63,-358.05"/>
</g>
<!-- L0_3&#45;&gt;L1_0 -->
<g id="edge20" class="edge">
<title>L0_3&#45;&gt;L1_0</title>
<path fill="none" stroke="blue" stroke-width="3.1" d="M202.61,-365.14C212.3,-369.18 223.08,-373.67 233.53,-378.02"/>
<polygon fill="blue" stroke="blue" stroke-width="3.1" points="232.05,-381.2 242.62,-381.81 234.74,-374.74 232.05,-381.2"/>
</g>
<!-- L0_4&#45;&gt;L1_0 -->
<g id="edge21" class="edge">
<title>L0_4&#45;&gt;L1_0</title>
<path fill="none" stroke="blue" stroke-width="5.82" d="M205.75,-431.55C214.08,-428.08 223.06,-424.34 231.87,-420.67"/>
<polygon fill="blue" stroke="blue" stroke-width="5.82" points="233.67,-425.44 240.94,-416.89 229.75,-416.03 233.67,-425.44"/>
</g>
<!-- L0_5&#45;&gt;L1_0 -->
<g id="edge22" class="edge">
<title>L0_5&#45;&gt;L1_0</title>
<path fill="none" stroke="blue" stroke-width="4.73" d="M193.38,-514.46C209.65,-493.71 231.19,-466.23 249.17,-443.29"/>
<polygon fill="blue" stroke="blue" stroke-width="4.73" points="252.28,-446.03 255.19,-435.6 245.76,-440.92 252.28,-446.03"/>
</g>
<!-- L0_6&#45;&gt;L1_0 -->
<g id="edge23" class="edge">
<title>L0_6&#45;&gt;L1_0</title>
<path fill="none" stroke="blue" stroke-width="5.5" d="M184.69,-608.21C204.1,-567.26 237.01,-497.85 259.56,-450.29"/>
<polygon fill="blue" stroke="blue" stroke-width="5.5" points="263.84,-452.5 263.77,-441.41 255.14,-448.38 263.84,-452.5"/>
</g>
<!-- L0_7&#45;&gt;L1_0 -->
<g id="edge24" class="edge">
<title>L0_7&#45;&gt;L1_0</title>
<path fill="none" stroke="red" stroke-width="5.09" d="M180.89,-699.36C201.14,-640.29 241.78,-521.76 265.51,-452.57"/>
<polygon fill="red" stroke="red" stroke-width="5.09" points="269.67,-454.18 268.7,-443.27 261.24,-451.29 269.67,-454.18"/>
</g>
</g>
</svg>
